<svg class="main-svg" xmlns="http://www.w3.org/2000/svg" xmlns:xlink="http://www.w3.org/1999/xlink" width="700" height="450" style="" viewBox="0 0 700 450"><rect x="0" y="0" width="700" height="450" style="fill: rgb(255, 255, 255); fill-opacity: 1;"/><defs id="defs-6b121b"><g class="clips"><clipPath id="clip6b121bxyplot" class="plotclip"><rect width="523" height="330"/></clipPath><clipPath class="axesclip" id="clip6b121bx"><rect x="60" y="0" width="523" height="450"/></clipPath><clipPath class="axesclip" id="clip6b121by"><rect x="0" y="60" width="700" height="330"/></clipPath><clipPath class="axesclip" id="clip6b121bxy"><rect x="60" y="60" width="523" height="330"/></clipPath></g><g class="gradients"/></defs><g class="bglayer"/><g class="layer-below"><g class="imagelayer"/><g class="shapelayer"/></g><g class="cartesianlayer"><g class="subplot xy"><g class="layer-subplot"><g class="shapelayer"/><g class="imagelayer"/></g><g class="gridlayer"><g class="x"><path class="xgrid crisp" transform="translate(174.75,0)" d="M0,60v330" style="stroke: rgb(238, 238, 238); stroke-opacity: 1; stroke-width: 1px;"/><path class="xgrid crisp" transform="translate(289.62,0)" d="M0,60v330" style="stroke: rgb(238, 238, 238); stroke-opacity: 1; stroke-width: 1px;"/><path class="xgrid crisp" transform="translate(404.49,0)" d="M0,60v330" style="stroke: rgb(238, 238, 238); stroke-opacity: 1; stroke-width: 1px;"/><path class="xgrid crisp" transform="translate(519.36,0)" d="M0,60v330" style="stroke: rgb(238, 238, 238); stroke-opacity: 1; stroke-width: 1px;"/></g><g class="y"><path class="ygrid crisp" transform="translate(0,314.35)" d="M60,0h523" style="stroke: rgb(238, 238, 238); stroke-opacity: 1; stroke-width: 1px;"/><path class="ygrid crisp" transform="translate(0,254.2)" d="M60,0h523" style="stroke: rgb(238, 238, 238); stroke-opacity: 1; stroke-width: 1px;"/><path class="ygrid crisp" transform="translate(0,194.04)" d="M60,0h523" style="stroke: rgb(238, 238, 238); stroke-opacity: 1; stroke-width: 1px;"/><path class="ygrid crisp" transform="translate(0,133.88)" d="M60,0h523" style="stroke: rgb(238, 238, 238); stroke-opacity: 1; stroke-width: 1px;"/><path class="ygrid crisp" transform="translate(0,73.73)" d="M60,0h523" style="stroke: rgb(238, 238, 238); stroke-opacity: 1; stroke-width: 1px;"/></g></g><g class="zerolinelayer"><path class="yzl zl crisp" transform="translate(0,374.51)" d="M60,0h523" style="stroke: rgb(68, 68, 68); stroke-opacity: 1; stroke-width: 1px;"/></g><path class="xlines-below"/><path class="ylines-below"/><g class="overlines-below"/><g class="xaxislayer-below"/><g class="yaxislayer-below"/><g class="overaxes-below"/><g class="plot" transform="translate(60, 60)" clip-path="url(#clip6b121bxyplot)"><g class="scatterlayer mlayer"><g class="trace scatter trace256230" style="stroke-miterlimit: 2; opacity: 1;"><g class="fills"/><g class="errorbars"/><g class="lines"><path class="js-line" d="M0,313.31L8.27,313.31L8.39,313.32L58.35,312.75L58.47,312.74L69.96,312.93L70.07,312.93L76.96,312.79L77.08,312.79L112,312.15L112.11,312.1L116.82,311.21L116.94,311.26L132.21,309.92L132.33,309.96L134.17,310.37L134.28,310.47L135.89,310.48L136.01,310.42L136.92,310.41L137.04,310.47L142.9,310.07L143.01,310L146.8,310.45L146.92,310.52L147.95,310.39L148.07,310.37L149.9,310.65L150.02,310.71L152.66,310.54L152.78,310.49L162.88,310.27L163,310.3L164.72,310.48L164.84,310.51L166.91,310.43L167.02,310.33L168.86,310.07L168.97,306.11L170.47,306.12L170.58,306.28L175.86,306.25L175.98,306.15L179.54,307.25L179.66,307.16L181.03,306.75L181.15,306.76L182.64,306.26L182.76,306.2L185.51,306.05L185.63,306.09L186.55,305.84L186.66,305.73L188.85,305.59L188.96,305.56L190.91,304.92L191.03,305L192.98,305.03L193.1,305.1L199.07,304.33L199.18,304.2L201.83,304.24L201.94,304.17L203.89,304.73L204.01,304.58L209.06,304.53L209.18,304.45L211.47,304.16L211.59,304L213.89,303.49L214,303.27L219.4,301.83L219.52,301.88L221.47,301.69L221.58,301.53L222.27,301.59L222.39,301.45L222.5,301.38L225.6,300.31L225.72,300.14L230.66,296.45L230.77,296.66L232.15,295.38L232.27,295.39L233.53,293.14L233.64,293.36L235.14,292.85L235.25,292.84L238.7,289.24L238.81,289.32L239.96,289.13L240.08,289.29L240.88,289.76L241.11,289.39L241.23,289.1L242.72,288L242.83,288.08L244.1,284.29L244.33,284.39L244.44,284.07L244.9,283.53L245.02,283.16L246.39,285.17L246.51,284.69L247.89,284.38L248,284.47L248.12,284.12L248.69,284.64L248.81,284.69L249.5,284.95L249.61,285.32L252.6,283.05L252.71,283.07L254.55,286.57L254.9,285.92L255.01,285.68L255.24,285.37L255.47,285.9L255.58,286.3L255.93,286.43L256.27,286.11L256.39,286.18L257.65,287.11L257.77,286.8L257.88,286.27L259.49,284.96L259.6,285L260.98,283.32L261.1,283.36L263.28,283.27L263.4,283.09L264.31,281.76L264.54,281.99L264.66,281.86L266.04,280.82L266.15,281.08L266.61,280.09L266.84,280.75L266.96,280.88L267.65,281.06L267.76,280.74L270.75,276.59L270.98,276.8L271.09,276.83L272.47,274.58L272.58,274.69L272.7,274.65L273.04,274.35L273.27,274.94L273.39,275.38L273.96,276.51L274.08,275.97L274.19,275.58L275.92,272.11L276.49,272.46L276.61,272.53L277.18,272.99L277.29,272.63L277.41,272.02L277.98,272.22L278.1,271.87L278.21,271.43L279.36,273.07L279.48,273.35L280.17,272.43L280.51,273.09L280.63,273.27L280.86,272.72L281.2,273.67L281.31,273.63L281.43,273.76L281.66,273.02L281.77,273.1L281.89,273.12L282.12,273.31L282.46,272.82L282.58,272.55L283.61,271.27L283.73,271.63L284.76,270.09L284.88,270.15L284.99,270.32L285.68,268.63L286.14,269.13L286.25,269.2L288.44,266.31L288.55,266.4L288.67,266.79L290.85,262.56L291.42,262.98L291.54,263.36L292.23,262.37L292.57,262.55L292.69,262.41L293.15,262.73L293.26,261.95L293.38,262.04L294.3,261.8L294.41,261.31L294.75,260.85L295.1,261.25L295.21,261.48L295.79,261.22L295.9,261.5L296.02,261.84L296.13,262.66L296.48,261.05L296.59,261.09L296.71,261.29L296.94,261.86L297.05,261.29L297.17,260.54L298.32,258.48L298.43,258.86L298.55,258.92L299,258.56L299.12,258.21L300.04,257.53L300.15,256.89L301.76,254.36L301.88,254.16L302.91,252.93L303.03,253.1L304.06,250.21L304.17,249.96L304.75,247.72L305.09,248.33L305.21,248.94L307.62,242.95L307.73,243.18L308.88,239.79L309,240.06L309.11,239.62L309.34,241.01L309.46,240.89L309.57,241.41L309.69,242.06L310.03,241.28L310.26,241.32L310.38,241.46L311.18,239.3L311.41,239.87L311.53,240.03L312.9,245.34L313.13,244.94L313.25,244.16L314.4,249.23L314.51,249.27L314.63,249.63L314.86,248.47L314.97,247.68L316.12,244.09L316.35,244.54L316.46,244.45L316.81,244.56L316.92,244.37L317.04,243.42L317.27,243.77L317.5,243.34L317.61,242.67L318.76,239.51L318.88,239.95L319.91,236.47L320.26,237.39L320.37,237.52L321.63,235.84L321.75,235.69L321.86,236.04L322.09,234.34L322.21,234.12L322.67,234.83L324.85,229.99L324.97,230.1L325.31,230.37L325.77,229.15L325.88,228.19L326.34,229.06L327.61,225.39L327.72,225.19L328.07,223.74L328.64,223.92L328.76,224.34L329.1,225.52L329.45,224.98L329.56,224.21L329.67,224.71L330.13,223.5L330.25,222.83L330.48,223.05L330.59,222.14L330.71,221.9L331.17,224.43L331.51,222.68L331.63,221.7L332.32,220.56L332.66,221.18L332.78,221.54L332.89,222.01L333.12,220.21L333.24,219.72L335.07,225.18L335.19,224.63L335.42,225.22L335.65,223.83L335.76,222.98L336.22,222.48L336.45,223.16L336.57,223.15L337.14,220.38L337.49,221.17L337.6,221.05L338.86,217.97L338.98,218.05L339.44,214.34L339.78,216.56L339.9,216.59L340.24,217.97L340.36,217.12L340.47,216.11L341.62,210.61L341.74,211.43L342.2,207.55L342.54,208.89L342.66,209.2L342.77,208.95L343.11,209.65L343.23,210.14L344.26,204.27L344.38,204.46L344.49,204.59L344.95,206.13L345.3,205.76L345.41,204.87L345.53,202.72L345.87,207.11L345.99,206.9L346.1,206.07L346.22,206.66L346.45,205L346.68,206.03L346.79,205.23L347.48,203.7L347.59,203.9L347.71,205.16L347.94,205.72L348.28,204.97L348.4,206.17L348.63,206.59L348.86,205.55L348.97,205.27L350.35,194.43L350.58,194.91L350.7,195.35L351.96,179.79L352.19,180.94L352.3,181.72L352.42,183.05L352.65,180.16L352.76,178.19L352.88,178.39L352.99,177.19L353.11,173.75L353.45,177.51L353.8,173.92L353.91,171.98L354.83,165.71L354.95,166.71L355.06,168.27L355.18,169.02L355.41,166.01L355.52,165.34L355.75,165.04L355.87,166.94L356.78,168.79L356.9,169.06L357.01,167.76L357.47,169.17L357.7,168.02L357.82,169.16L358.28,173.76L358.51,171.61L358.62,169.62L359.43,160.79L359.77,163.76L359.89,165.18L360.92,174.74L361.15,171L361.26,171.63L361.38,170.71L361.61,172.75L361.72,174.39L362.07,169.56L362.18,171.76L362.3,174.24L362.64,177.24L362.76,175.09L362.87,171.24L363.79,177.22L363.91,177.15L364.02,179.76L364.25,179.63L364.37,182.73L364.94,180.8L365.4,187.52L365.51,185.43L365.63,184.06L365.97,187.88L366.09,187.91L368.5,174.55L368.62,174.67L368.73,176.04L369.19,180.11L369.65,178.81L369.76,179.59L370.34,184.6L370.45,186.95L370.8,185.31L370.91,187.79L371.03,187.32L371.14,188.4L371.26,187.95L371.6,189.43L371.72,189.86L372.18,186.77L372.41,189.04L372.52,190.05L373.33,196.92L373.44,193.83L373.56,194.96L373.67,195.9L373.9,193.52L374.24,194.32L374.36,194.08L374.59,194.69L374.7,193.81L374.82,191.89L375.05,188.56L375.39,192.52L375.51,191.89L375.62,192.84L376.66,187.84L376.77,189.91L376.89,189.72L377,191.67L377.35,191.5L377.81,194.54L377.92,192.77L379.53,203.8L379.64,203.33L380.45,200.16L380.56,201.47L380.68,203.97L381.94,218.06L382.06,217.78L382.51,225.44L382.74,220.24L382.86,217.16L383.09,214.89L383.32,216.46L383.43,218.53L383.55,216.41L383.89,220.67L384.01,221.93L384.12,224.7L384.58,221.16L384.7,221.23L384.81,220.74L385.27,222.51L385.39,220.95L385.85,216.09L386.19,216.86L386.31,217.88L386.65,217.02L386.76,216.43L387.45,213.38L387.57,212.3L387.8,211.71L387.91,212.84L388.03,214.2L388.95,218.84L389.06,218.6L389.18,217.78L390.56,213.51L390.79,213.93L390.9,214.84L391.24,214.75L391.36,216.02L391.47,215.15L391.59,214.17L392.16,211.53L392.39,212.6L392.51,211.79L394.46,188.47L394.58,185.97L395.5,179.37L395.61,178.75L395.84,178.36L395.95,175.82L396.18,176.02L396.53,170.12L396.64,168.76L396.76,169.53L396.87,167.17L396.99,167.21L397.1,163.57L398.6,146.52L398.83,148.04L398.94,148.38L399.17,149.54L399.4,147.84L399.52,145.39L399.63,145.75L399.75,144.81L399.86,143.91L401.01,139.93L401.12,141.96L401.24,140.94L401.47,144.12L401.58,145.18L401.7,146.26L402.04,143.34L402.16,140.64L403.65,128.72L403.77,128.94L404,128.57L404.11,130.64L404.57,125.68L404.68,123.04L404.8,124.45L405.14,122.84L405.37,123.2L405.49,123L405.72,122.5L405.95,123.45L406.06,124.76L406.75,118.13L407.21,118.68L407.33,118.24L408.25,113.48L408.36,113.19L409.05,105.99L409.16,104.77L409.39,102.03L409.62,105.64L409.74,105.65L410.66,111.53L410.77,111.11L410.89,107.83L412.38,100.09L412.5,100.8L412.61,101.41L413.3,93.48L413.64,96.76L413.76,96.68L414.56,100.76L414.68,99.55L414.79,97.44L415.83,92.21L415.94,92.63L416.29,90.61L416.63,92.47L416.75,93.06L417.32,95.17L417.44,93.75L417.55,92.96L418.01,97.18L418.47,96.07L418.58,95.13L419.96,84.27L420.31,84.62L420.42,85.71L420.88,85.93L421.11,85.12L421.23,86.22L422.14,82.28L422.26,82.7L422.37,83.07L422.83,81.14L422.95,83.08L423.06,83.38L423.29,85.27L423.64,84.36L423.75,83.06L423.87,82.15L424.33,83.52L424.44,83.65L424.67,85.07L424.79,87.54L425.25,83.01L425.59,84.1L425.71,85.6L426.17,87.75L426.62,86.61L426.74,85.67L427.08,86.31L427.66,82.47L427.77,80.46L428,79.19L428.12,77.87L428.58,75.34L428.69,75.73L428.81,78.6L429.15,75.81L429.5,76.77L429.61,78.59L429.73,78.74L429.84,77.04L431.22,73.17L431.33,73.97L431.45,75.01L433.29,60.28L433.52,62.23L433.63,62.56L434.21,64.07L434.32,62.95L434.44,61.41L434.55,62.4L434.78,60.83L434.9,60.89L435.01,57.74L436.96,37.09L437.08,37.29L438.46,48.26L438.57,47.23L438.69,47.77L438.8,49.01L439.15,45.64L439.38,48.13L439.49,47.55L439.6,47.25L439.83,48.69L439.95,49.76L440.18,49.35L440.29,49.5L440.41,51.54L440.52,51.34L440.64,51.83L440.75,49.84L441.33,55.54L441.56,52.92L441.67,51.55L441.9,50.21L442.13,54.14L442.25,55.25L442.71,58.52L443.17,56.92L443.28,57.17L443.4,57.36L443.51,59.11L443.63,60.5L443.97,59.18L444.08,56.97L444.54,61.7L444.66,64.51L444.77,62.93L445.35,63.9L445.46,66.67L445.58,64.67L445.69,68.81L446.04,67.4L446.15,67.92L446.61,73.37L447.19,72.55L447.3,71.46L447.65,73L447.88,70.73L447.99,67.79L448.11,67.29L448.22,67.49L448.33,70.05L448.56,70.64L448.68,69.42L448.79,69.87L448.91,68.91L449.14,67.36L449.48,69.23L449.6,70.09L449.71,69.89L449.83,66.9L450.17,68.21L450.52,67.28L450.63,64.77L451.32,60.09L451.44,62.23L451.55,62.62L451.78,61.23L451.9,61.86L452.01,61.33L453.16,56.83L453.27,60.24L455.23,67.77L455.34,66.94L455.46,66.81L456.15,61.74L456.38,62.18L456.49,64.09L457.29,66.2L457.41,64.31L457.64,65.94L457.75,64.59L457.87,65.3L457.98,63L458.1,61.92L458.21,61.73L458.33,64.71L458.67,63.96L458.79,62.84L459.02,62.18L459.13,63.57L459.36,63.07L459.59,64.67L459.71,64.41L459.82,63L460.63,69.5L460.97,67.24L461.09,67.6L461.32,70.09L461.43,71.64L463.15,90.82L463.27,89.82L463.38,89.68L463.5,87.98L463.73,85.72L464.19,88.24L464.3,89.29L464.88,87.59L464.99,89.81L465.34,85.63L465.8,88.04L465.91,90.03L466.48,84.66L466.83,85.27L466.94,86.79L467.17,86.57L467.29,83.2L467.4,83.9L467.52,82.23L467.63,79.27L467.75,77.15L468.09,81.98L468.21,83.7L469.59,96.15L469.7,94.7L469.82,95.06L469.93,93.31L470.05,91.73L470.39,87.8L470.85,88.82L470.96,90.02L471.54,88.42L471.65,90.31L471.77,90.52L471.88,88L473.26,80.38L473.38,80.71L474.41,71.96L474.53,72.86L475.79,61.12L475.9,61.82L476.02,62.63L476.25,62.81L476.48,57.67L476.71,59.64L476.82,62.55L477.17,68.63L477.63,64.25L477.74,65.43L478.09,69.34L478.43,65.5L478.55,66.04L479.69,74.82L479.81,72.04L479.92,72.58L480.04,70.6L480.38,72.03L480.5,70.72L480.84,72.44L481.07,69.63L481.19,70.12L481.3,71L481.99,76.26L482.34,75.47L482.45,75.14L483.26,79.34L483.37,77.66L483.48,77.42L484.17,75.75L484.29,73.28L484.52,70.7L485.09,71.74L485.21,71.49L485.44,69.53L485.78,70.07L485.9,71.03L486.93,66.47L487.05,65.73L487.85,60.05L487.96,60.8L488.31,61.83L488.42,62.79L489.34,70.19L489.57,68.28L489.69,67.74L490.95,59.98L491.07,60.93L491.41,59.6L491.64,62.29L491.76,60.96L491.87,62.1L492.9,55.36L493.02,53.52L493.48,49.37L493.59,47.85L493.71,50.52L494.28,47.92L494.4,46.89L494.51,46.34L494.74,48.88L494.86,48.1L494.97,49.01L495.32,50.33L495.55,48.24L495.66,50.81L495.78,52.29L496.24,50.09L496.47,52.06L496.58,51.05L496.69,52.26L497.04,48.14L497.15,49.06L497.27,48.8L498.07,51.09L498.3,50.35L498.42,49.23L499.68,39.21L500.03,39.87L500.14,41.09L500.49,40.62L500.6,38.8L501.86,31.49L501.98,32.03L502.09,31.37L502.21,31.27L502.44,31.98L502.55,34.14L503.59,29.71L503.7,32.15L503.93,33.82L504.05,31.33L504.28,30.86L504.39,31.11L504.51,32.51L505.42,41.74L505.88,41.08L506,39.81L506.34,42.6L506.57,41.83L506.69,40.57L507.72,30.37L507.84,30.57L507.95,32.93L509.1,37.89L509.22,35.14L509.33,37.1L509.68,30.99L509.79,31.15L509.9,32.05L510.13,29.2L510.25,27.09L511.05,36.85L511.28,33.9L511.4,32.85L511.74,34.22L511.97,31.63L512.09,28.37L512.43,25.15L512.78,29.06L512.89,28.42L513.12,25.4L513.35,30.94L513.47,34.17L513.7,33.52L514.5,38.36L514.61,37.03L514.73,34.63L515.19,37.44L515.3,39.52L515.42,40.46L515.65,37.22L515.76,35.05L515.88,34.85L515.99,36.73L517.03,47.88L517.14,47.36L517.26,49.3L517.49,46.41L517.72,50.45L517.83,52.06L518.86,58.92L518.98,57.26L520.24,43.59L520.36,41.4L521.05,33.62L521.16,31.2L522.31,16.5L522.43,20.25L522.54,20.73L523,22.52" style="vector-effect: non-scaling-stroke; fill: none; stroke: rgb(31, 119, 180); stroke-opacity: 1; stroke-width: 2px; opacity: 1;"/></g><g class="points"/><g class="text"/></g></g></g><g class="overplot"/><path class="xlines-above crisp" d="M0,0" style="fill: none;"/><path class="ylines-above crisp" d="M0,0" style="fill: none;"/><g class="overlines-above"/><g class="xaxislayer-above"><g class="xtick"><text text-anchor="middle" x="0" y="403" transform="translate(174.75,0)" style="font-family: 'Open Sans', verdana, arial, sans-serif; font-size: 12px; fill: rgb(68, 68, 68); fill-opacity: 1; white-space: pre;">1000</text></g><g class="xtick"><text text-anchor="middle" x="0" y="403" transform="translate(289.62,0)" style="font-family: 'Open Sans', verdana, arial, sans-serif; font-size: 12px; fill: rgb(68, 68, 68); fill-opacity: 1; white-space: pre;">2000</text></g><g class="xtick"><text text-anchor="middle" x="0" y="403" transform="translate(404.49,0)" style="font-family: 'Open Sans', verdana, arial, sans-serif; font-size: 12px; fill: rgb(68, 68, 68); fill-opacity: 1; white-space: pre;">3000</text></g><g class="xtick"><text text-anchor="middle" x="0" y="403" transform="translate(519.36,0)" style="font-family: 'Open Sans', verdana, arial, sans-serif; font-size: 12px; fill: rgb(68, 68, 68); fill-opacity: 1; white-space: pre;">4000</text></g></g><g class="yaxislayer-above"><g class="ytick"><text text-anchor="end" x="59" y="4.199999999999999" transform="translate(0,374.51)" style="font-family: 'Open Sans', verdana, arial, sans-serif; font-size: 12px; fill: rgb(68, 68, 68); fill-opacity: 1; white-space: pre;">0</text></g><g class="ytick"><text text-anchor="end" x="59" y="4.199999999999999" transform="translate(0,314.35)" style="font-family: 'Open Sans', verdana, arial, sans-serif; font-size: 12px; fill: rgb(68, 68, 68); fill-opacity: 1; white-space: pre;">5M</text></g><g class="ytick"><text text-anchor="end" x="59" y="4.199999999999999" transform="translate(0,254.2)" style="font-family: 'Open Sans', verdana, arial, sans-serif; font-size: 12px; fill: rgb(68, 68, 68); fill-opacity: 1; white-space: pre;">10M</text></g><g class="ytick"><text text-anchor="end" x="59" y="4.199999999999999" transform="translate(0,194.04)" style="font-family: 'Open Sans', verdana, arial, sans-serif; font-size: 12px; fill: rgb(68, 68, 68); fill-opacity: 1; white-space: pre;">15M</text></g><g class="ytick"><text text-anchor="end" x="59" y="4.199999999999999" transform="translate(0,133.88)" style="font-family: 'Open Sans', verdana, arial, sans-serif; font-size: 12px; fill: rgb(68, 68, 68); fill-opacity: 1; white-space: pre;">20M</text></g><g class="ytick"><text text-anchor="end" x="59" y="4.199999999999999" transform="translate(0,73.73)" style="font-family: 'Open Sans', verdana, arial, sans-serif; font-size: 12px; fill: rgb(68, 68, 68); fill-opacity: 1; white-space: pre;">25M</text></g></g><g class="overaxes-above"/></g></g><g class="polarlayer"/><g class="ternarylayer"/><g class="geolayer"/><g class="pielayer"/><g class="glimages"/><defs id="topdefs-6b121b"><g class="clips"/><clipPath id="legend6b121b"><rect width="95" height="29" x="0" y="0"/></clipPath></defs><g class="layer-above"><g class="imagelayer"/><g class="shapelayer"/></g><g class="infolayer"><g class="legend" pointer-events="all" transform="translate(593.46, 60)"><rect class="bg" shape-rendering="crispEdges" width="95" height="29" x="0" y="0" style="stroke: rgb(68, 68, 68); stroke-opacity: 1; fill: rgb(255, 255, 255); fill-opacity: 1; stroke-width: 0px;"/><g class="scrollbox" transform="translate(0, 0)" clip-path="url(#legend6b121b)"><g class="groups"><g class="traces" transform="translate(0, 14.5)" style="opacity: 1;"><g class="layers" style="opacity: 1;"><g class="legendfill"/><g class="legendlines"><path class="js-line" d="M5,0h30" style="fill: none; stroke: rgb(31, 119, 180); stroke-opacity: 1; stroke-width: 2px;"/></g><g class="legendsymbols"><g class="legendpoints"/></g></g><text class="legendtext user-select-none" text-anchor="start" x="40" y="4.680000000000001" style="font-family: 'Open Sans', verdana, arial, sans-serif; font-size: 12px; fill: rgb(68, 68, 68); fill-opacity: 1; white-space: pre;">iterations</text><rect class="legendtoggle" pointer-events="all" x="0" y="-9.5" width="135" height="19" style="cursor: pointer; fill: rgb(0, 0, 0); fill-opacity: 0;"/></g></g></g><rect class="scrollbar" rx="20" ry="3" width="0" height="0" x="0" y="0" style="fill: rgb(128, 139, 164); fill-opacity: 1;"/></g><g class="g-gtitle"><text class="gtitle" x="350" y="30" text-anchor="middle" dy="0em" style="font-family: 'Open Sans', verdana, arial, sans-serif; font-size: 17px; fill: rgb(68, 68, 68); opacity: 1; font-weight: normal; white-space: pre;">Policy Wealth</text></g><g class="g-xtitle"><text class="xtitle" x="321.5" y="442" text-anchor="middle" style="font-family: 'Open Sans', verdana, arial, sans-serif; font-size: 14px; fill: rgb(68, 68, 68); opacity: 1; font-weight: normal; white-space: pre;">Iterations</text></g><g class="g-ytitle"><text class="ytitle" transform="rotate(-90,22,225)" x="22" y="225" text-anchor="middle" style="font-family: 'Open Sans', verdana, arial, sans-serif; font-size: 14px; fill: rgb(68, 68, 68); opacity: 1; font-weight: normal; white-space: pre;">Wealth</text></g></g></svg>